<svg xmlns="http://www.w3.org/2000/svg" width="437" height="127"><g fill="#4FCB6C"><path d="M104.655 16.533c0 1.526-.241 3.364-.721 5.512-.481 2.149-1.174 4.381-2.078 6.698-.905 2.319-1.992 4.621-3.264 6.911s-2.728 4.354-4.367 6.19c-1.641 1.837-3.421 3.321-5.342 4.452a11.998 11.998 0 0 1-6.189 1.696c-.509 0-1.174-.042-1.993-.127a9.694 9.694 0 0 1-2.459-.593 5.648 5.648 0 0 1-2.12-1.399c-.593-.621-.89-1.441-.89-2.459 0-.678.183-1.469.551-2.374.367-.903 1.031-1.95 1.993-3.137a64.58 64.58 0 0 0 3.307-4.028A42.929 42.929 0 0 0 84.305 29a40.546 40.546 0 0 0 2.417-5.002c.649-1.639.975-3.108.975-4.409 0-1.639-.381-2.953-1.145-3.943-.763-.988-2.078-1.484-3.943-1.484-2.431 0-5.172.792-8.225 2.374-3.053 1.583-6.247 3.76-9.582 6.529-3.336 2.771-6.728 6.007-10.175 9.709a160.446 160.446 0 0 0-10.005 11.871 172.356 172.356 0 0 0-9.115 13.143c-2.855 4.551-5.342 9.045-7.461 13.481-2.12 4.438-3.788 8.706-5.003 12.804-1.216 4.1-1.823 7.815-1.823 11.15 0 4.127 1.102 7.434 3.307 9.921 2.205 2.488 5.851 3.73 10.938 3.73 2.375 0 5.906-.918 10.599-2.756 4.691-1.836 8.606-3.674 11.744-5.512a140.157 140.157 0 0 0 9.497-6.104 993.753 993.753 0 0 0 9.115-6.444c2.883-2.062 5.512-3.928 7.886-5.596 2.374-1.667 4.324-2.841 5.851-3.52a1.584 1.584 0 0 1 1.018-.339c.848 0 1.427.692 1.738 2.077.31 1.386.466 2.955.466 4.706 0 .962-.127 2.135-.381 3.519-.254 1.386-1.06 2.982-2.417 4.791-.623.735-1.78 1.979-3.476 3.73-1.696 1.753-3.816 3.731-6.359 5.936-2.544 2.205-5.456 4.494-8.734 6.868a84.069 84.069 0 0 1-10.641 6.529c-3.816 1.979-8.734 3.93-14.754 5.851-6.021 1.921-11.264 2.883-15.729 2.883-5.257 0-9.751-.636-13.482-1.907-3.731-1.272-6.783-3.038-9.158-5.3-2.374-2.261-4.112-4.96-5.214-8.098-1.103-3.138-1.654-6.571-1.654-10.303 0-4.634.707-9.608 2.12-14.923C4.912 79.65 6.877 74.25 9.393 68.767c2.515-5.482 5.511-10.966 8.988-16.45a152.128 152.128 0 0 1 11.447-15.729 141.357 141.357 0 0 1 13.27-13.948c4.691-4.295 9.497-8.026 14.415-11.192 4.918-3.165 9.864-5.652 14.839-7.462 4.974-1.808 9.864-2.713 14.669-2.713 2.374 0 4.634.269 6.783.806 2.148.538 4.028 1.399 5.639 2.586 1.611 1.187 2.883 2.755 3.816 4.706s1.396 4.336 1.396 7.162z"/><path d="M77.861 110.228a518.296 518.296 0 0 1 4.664-9.624c1.751-3.531 3.519-7.037 5.299-10.514s3.462-6.783 5.045-9.921a664.708 664.708 0 0 0 3.985-8.013l27.981-55.03c.339-.734.861-1.442 1.569-2.12a13.23 13.23 0 0 1 2.417-1.823c.903-.537 1.865-.96 2.883-1.272a10.43 10.43 0 0 1 3.053-.466c2.487 0 4.21.466 5.172 1.399.96.933 1.441 2.078 1.441 3.434 0 1.244-.312 2.559-.933 3.943a26.614 26.614 0 0 1-2.12 3.858 336.532 336.532 0 0 0-7.165 12.846 2783.483 2783.483 0 0 0-6.868 13.058 1428.186 1428.186 0 0 1-6.91 13.058 307.873 307.873 0 0 1-7.292 12.846 312.142 312.142 0 0 1 5.045-4.748 43.564 43.564 0 0 1 5.808-4.494c2.091-1.356 4.38-2.472 6.868-3.349 2.487-.876 5.257-1.314 8.31-1.314 1.809 0 3.532.169 5.172.509 1.639.339 3.081.89 4.324 1.653 1.243.763 2.232 1.81 2.968 3.137.734 1.329 1.103 2.955 1.103 4.876 0 2.544-.382 4.876-1.145 6.995a31.198 31.198 0 0 1-2.925 6.021 52.751 52.751 0 0 1-3.9 5.427 100.027 100.027 0 0 0-4.027 5.257 38.355 38.355 0 0 0-3.307 5.554c-.933 1.923-1.513 4.015-1.738 6.275 0 .113-.014.227-.042.339a1.368 1.368 0 0 0-.042.339c0 1.132.381 1.838 1.145 2.12.763.283 1.738.424 2.925.424 1.526 0 3.165-.297 4.918-.891a32.2 32.2 0 0 0 5.299-2.374 60.747 60.747 0 0 0 5.342-3.35 91.203 91.203 0 0 0 5.087-3.815c1.611-1.3 3.095-2.557 4.452-3.773a190.286 190.286 0 0 0 3.476-3.18 5.544 5.544 0 0 1 1.611-1.018c.564-.225 1.102-.339 1.611-.339 1.018 0 1.879.382 2.586 1.145.706.764 1.06 1.796 1.06 3.096 0 1.187-.411 2.543-1.229 4.069-.82 1.526-2.219 3.053-4.197 4.579a204.944 204.944 0 0 1-9.497 7.801 92.48 92.48 0 0 1-9.751 6.613c-3.279 1.923-6.543 3.449-9.793 4.579-3.251 1.13-6.431 1.696-9.539 1.696-4.014 0-7.236-.92-9.667-2.756-2.431-1.837-3.646-4.734-3.646-8.691 0-2.883.494-5.609 1.484-8.183a47.912 47.912 0 0 1 3.646-7.462 89.837 89.837 0 0 1 4.622-6.952 72.675 72.675 0 0 0 4.324-6.571c.678-.961 1.2-1.852 1.569-2.671a6.46 6.46 0 0 0 .551-2.672c0-.848-.227-1.539-.678-2.077-.453-.536-1.159-.806-2.12-.806-3.336 0-6.417.82-9.243 2.459-2.827 1.641-5.426 3.731-7.801 6.275a67.133 67.133 0 0 0-6.614 8.352 365.712 365.712 0 0 0-5.681 8.691 51.398 51.398 0 0 0-2.417 4.281c-.82 1.611-1.668 3.265-2.543 4.961a126.43 126.43 0 0 1-2.756 5.045c-.962 1.668-1.965 3.152-3.01 4.451-1.046 1.302-2.149 2.346-3.307 3.138-1.159.791-2.361 1.188-3.604 1.188-1.979 0-3.505-.581-4.579-1.738-1.073-1.158-1.611-2.614-1.611-4.367 0-1.3.227-2.671.678-4.112.452-1.443 1.186-3.209 2.204-5.301z"/><path d="M199.029 61.981c2.147 0 4.452.283 6.911.848a21.143 21.143 0 0 1 6.826 2.883c2.091 1.356 3.829 3.152 5.215 5.385 1.384 2.233 2.077 4.989 2.077 8.267 0 1.696-.227 3.633-.678 5.809-.453 2.177-1.131 4.451-2.035 6.826.564.678 1.215 1.159 1.95 1.441a6.546 6.546 0 0 0 2.375.424c1.187 0 2.501-.34 3.943-1.018 1.441-.679 2.925-1.555 4.451-2.629a51.417 51.417 0 0 0 4.579-3.646 101.508 101.508 0 0 0 4.324-4.07 108.26 108.26 0 0 0 3.688-3.858 184.433 184.433 0 0 0 2.756-3.095 1.962 1.962 0 0 1 1.441-.594c.791 0 1.497.411 2.12 1.229.622.82.933 1.965.933 3.435 0 1.471-.439 3.166-1.314 5.087-.877 1.923-2.501 3.93-4.875 6.021a1225.8 1225.8 0 0 0-4.664 5.088 63.725 63.725 0 0 1-5.596 5.427 37.116 37.116 0 0 1-6.19 4.324c-2.149 1.187-4.296 1.78-6.444 1.78a13.68 13.68 0 0 1-4.282-.678c-1.386-.452-2.785-1.188-4.197-2.205a51.705 51.705 0 0 1-6.953 8.648 42.644 42.644 0 0 1-8.691 6.699c-3.194 1.865-6.643 3.321-10.345 4.366-3.703 1.046-7.646 1.569-11.829 1.569-1.583 0-3.421-.312-5.511-.933-2.092-.623-4.085-1.654-5.978-3.096-1.895-1.441-3.491-3.319-4.791-5.639-1.301-2.316-1.95-5.143-1.95-8.479 0-2.261.367-4.974 1.102-8.141.734-3.165 1.851-6.43 3.349-9.793 1.497-3.362 3.392-6.699 5.681-10.006a44.336 44.336 0 0 1 8.183-8.903c3.165-2.628 6.783-4.748 10.854-6.359 4.068-1.608 8.59-2.414 13.565-2.414zm-4.409 14.923c-2.658 0-5.215.665-7.674 1.993-2.459 1.329-4.636 3.081-6.529 5.257a26.572 26.572 0 0 0-4.536 7.377c-1.132 2.742-1.696 5.554-1.696 8.437 0 1.075.084 2.247.254 3.52a11.55 11.55 0 0 0 1.06 3.561 7.288 7.288 0 0 0 2.332 2.756c1.017.735 2.374 1.103 4.07 1.103 2.6 0 5.13-.691 7.589-2.077 2.459-1.385 4.649-3.193 6.571-5.427 1.921-2.232 3.447-4.762 4.579-7.589 1.13-2.826 1.696-5.682 1.696-8.564 0-1.13-.072-2.303-.212-3.519a9.468 9.468 0 0 0-1.018-3.35c-.538-1.018-1.314-1.851-2.332-2.501-1.017-.651-2.403-.977-4.154-.977z"/><path d="M245.155 69.358c.961-1.582 2.063-2.714 3.307-3.392 1.243-.679 2.515-1.018 3.815-1.018 2.148 0 3.999.692 5.554 2.077 1.554 1.386 2.332 3.152 2.332 5.3-.057.509-.127 1.018-.212 1.526s-.269 1.017-.551 1.525c-.792 1.471-1.441 2.714-1.95 3.731s-.975 1.965-1.399 2.841a181.23 181.23 0 0 0-1.229 2.586c-.396.848-.877 1.865-1.441 3.053a218.848 218.848 0 0 1-2.29 4.621 95.909 95.909 0 0 0-2.417 5.13 53.076 53.076 0 0 0-1.95 5.172c-.538 1.696-.806 3.251-.806 4.664 0 1.525.382 2.53 1.145 3.01s1.851.721 3.264.721c1.582 0 3.235-.339 4.96-1.018a33.426 33.426 0 0 0 5.215-2.629 46.982 46.982 0 0 0 5.172-3.688 88.754 88.754 0 0 0 4.791-4.197 145.517 145.517 0 0 0 4.155-4.069c1.271-1.3 2.331-2.459 3.18-3.477 1.13-1.073 2.26-1.611 3.392-1.611 1.018 0 1.851.453 2.501 1.356.649.905.976 2.064.976 3.477 0 1.302-.326 2.686-.976 4.155-.65 1.471-1.71 2.854-3.18 4.154a189.793 189.793 0 0 1-8.818 8.438c-2.997 2.686-6.062 5.06-9.2 7.122-3.138 2.064-6.29 3.718-9.455 4.96-3.167 1.243-6.359 1.866-9.582 1.866-4.579 0-8.182-1.174-10.811-3.52-2.628-2.345-3.943-6.005-3.943-10.98 0-2.6.367-5.143 1.103-7.631a63.235 63.235 0 0 1 2.628-7.25 107.954 107.954 0 0 1 3.222-6.783 70.103 70.103 0 0 0 2.883-6.232c.282-.733.776-1.865 1.484-3.392.706-1.526 1.455-3.08 2.247-4.663.905-1.865 1.867-3.843 2.884-5.935zm9.327-19.078c0-1.299.24-2.642.721-4.027a11.681 11.681 0 0 1 2.163-3.773c.96-1.13 2.162-2.063 3.604-2.798 1.441-.734 3.15-1.103 5.13-1.103 3.278 0 5.567.636 6.868 1.908 1.299 1.272 1.95 2.87 1.95 4.791 0 1.074-.212 2.261-.636 3.561a11.948 11.948 0 0 1-1.908 3.604c-.848 1.102-1.95 2.021-3.307 2.755-1.357.735-2.968 1.103-4.833 1.103-3.505 0-5.964-.551-7.376-1.654-1.415-1.103-2.206-2.557-2.376-4.367z"/><path d="M322.57 69.782c0 1.753-.198 3.688-.594 5.809-.396 2.119-1.046 4.112-1.95 5.978s-2.063 3.421-3.476 4.663c-1.414 1.244-3.167 1.865-5.258 1.865-1.131 0-1.852-.169-2.162-.508-.312-.34-.466-.934-.466-1.781 0-.509.013-1.257.042-2.247.028-.988.042-1.936.042-2.84 0-1.018-.142-1.879-.424-2.587-.283-.706-.989-1.06-2.119-1.06-1.302 0-2.756.495-4.367 1.483-1.611.99-3.222 2.276-4.833 3.858-1.611 1.583-3.18 3.379-4.706 5.385a62.594 62.594 0 0 0-4.112 6.104c-1.217 2.064-2.177 4.057-2.883 5.978-.708 1.923-1.061 3.562-1.061 4.918 0 1.979.692 3.534 2.078 4.664 1.384 1.131 3.265 1.695 5.639 1.695 2.544 0 5.257-.424 8.14-1.271s5.751-1.921 8.606-3.222a99.262 99.262 0 0 0 8.268-4.24 187.328 187.328 0 0 0 7.249-4.366 262.203 262.203 0 0 0 5.47-3.562c1.469-.988 2.43-1.597 2.883-1.823.903-.451 1.751-.678 2.544-.678.678 0 1.257.156 1.738.466.479.312.86.679 1.145 1.103.282.424.479.877.594 1.356.112.481.169.891.169 1.229 0 .509-.057 1.117-.169 1.823-.114.707-.538 1.513-1.272 2.416-.283.34-1.201 1.202-2.756 2.587-1.555 1.386-3.561 3.01-6.02 4.875s-5.287 3.858-8.479 5.978a85.297 85.297 0 0 1-10.26 5.809 76.018 76.018 0 0 1-11.32 4.367c-3.9 1.157-7.745 1.738-11.531 1.738-2.883 0-5.441-.453-7.674-1.357-2.233-.903-4.112-2.133-5.639-3.688a15.573 15.573 0 0 1-3.477-5.469c-.792-2.091-1.187-4.295-1.187-6.613 0-2.544.594-5.47 1.781-8.776s2.826-6.684 4.918-10.133c2.091-3.447 4.55-6.839 7.377-10.175 2.826-3.335 5.893-6.303 9.2-8.903 3.307-2.6 6.754-4.691 10.344-6.274 3.59-1.582 7.221-2.374 10.896-2.374 1.242 0 2.416.142 3.519.424 1.103.283 2.062.721 2.883 1.314.819.594 1.47 1.398 1.95 2.416.479 1.017.72 2.234.72 3.646z"/><path d="M367.51 61.896c4.691 0 8.196 1.132 10.515 3.392 2.317 2.262 3.477 5.398 3.477 9.412 0 2.374-.623 4.862-1.866 7.462-1.244 2.601-3.392 5.243-6.443 7.928-3.053 2.686-7.138 5.427-12.253 8.225-5.116 2.798-11.519 5.611-19.205 8.437.282 1.641 1.157 2.926 2.628 3.858 1.47.933 3.42 1.399 5.851 1.399 2.6 0 5.385-.382 8.353-1.145a68.573 68.573 0 0 0 8.818-2.926 122.777 122.777 0 0 0 8.521-3.858 190.681 190.681 0 0 0 7.504-3.942 189.405 189.405 0 0 0 5.597-3.222c1.497-.904 2.501-1.47 3.01-1.696.509-.339.976-.536 1.399-.594a8.847 8.847 0 0 1 1.145-.085c.679 0 1.243.156 1.695.467.452.312.834.679 1.146 1.103.31.424.521.877.636 1.356.112.48.17.891.17 1.229 0 .509-.058 1.117-.17 1.823-.114.707-.538 1.513-1.272 2.416-.283.284-1.229 1.047-2.84 2.29-1.611 1.243-3.688 2.713-6.232 4.409-2.544 1.695-5.498 3.49-8.86 5.384a103.735 103.735 0 0 1-10.685 5.215 84.136 84.136 0 0 1-11.743 3.942c-4.07 1.046-8.085 1.569-12.041 1.569-3.392 0-6.401-.65-9.03-1.95-2.628-1.3-4.862-3.053-6.698-5.258-1.838-2.204-3.236-4.748-4.197-7.631-.962-2.883-1.441-5.906-1.441-9.073 0-2.43.479-5.101 1.441-8.013.961-2.91 2.345-5.836 4.155-8.775 1.808-2.938 4.027-5.809 6.655-8.606a48.796 48.796 0 0 1 8.861-7.42c3.277-2.147 6.881-3.871 10.811-5.172 3.925-1.299 8.122-1.95 12.588-1.95zm-3.053 11.702a3.976 3.976 0 0 0-.763-.085h-.764c-2.148 0-4.154.424-6.02 1.272a20.333 20.333 0 0 0-5.13 3.349 26.514 26.514 0 0 0-4.155 4.706 62.874 62.874 0 0 0-3.265 5.215 46.451 46.451 0 0 0-2.416 4.96c-.65 1.584-1.145 2.912-1.484 3.985a93.22 93.22 0 0 0 6.147-3.477 425.331 425.331 0 0 0 5.979-3.73 149.955 149.955 0 0 0 4.875-3.222c1.385-.961 2.359-1.611 2.926-1.95 2.543-1.582 4.295-3.066 5.257-4.452.961-1.385 1.441-2.586 1.441-3.604 0-.848-.269-1.526-.806-2.035-.537-.509-1.143-.818-1.822-.932z"/><path d="M413.468 75.887c3.447 1.811 6.529 3.873 9.242 6.19 2.714 2.318 5.017 4.763 6.911 7.334 1.893 2.573 3.334 5.188 4.324 7.844.988 2.657 1.483 5.257 1.483 7.801 0 3.222-.919 6.119-2.756 8.691s-4.239 4.748-7.207 6.528c-2.968 1.781-6.359 3.138-10.175 4.07s-7.674 1.399-11.574 1.399c-2.939 0-5.795-.326-8.563-.976-2.771-.65-5.3-1.653-7.589-3.01-2.29-1.356-4.255-3.095-5.894-5.215s-2.798-4.649-3.477-7.589c-.112-.452-.17-.818-.17-1.103 0-1.526.538-2.841 1.611-3.942 1.073-1.103 2.261-1.653 3.562-1.653.621 0 1.314.113 2.077.339.764.227 1.343.735 1.738 1.526.734 1.356 1.767 2.572 3.095 3.646a21.353 21.353 0 0 0 4.452 2.756 26.354 26.354 0 0 0 5.215 1.781c1.836.424 3.631.636 5.384.636 1.809 0 3.547-.17 5.215-.509 1.667-.339 3.138-.876 4.409-1.611 1.271-.733 2.274-1.667 3.01-2.798.734-1.13 1.103-2.515 1.103-4.155 0-2.883-.65-5.539-1.95-7.97-1.301-2.431-2.982-4.677-5.045-6.741-2.064-2.063-4.409-3.985-7.038-5.766a285.145 285.145 0 0 0-7.843-5.13c-.284-.17-.708-.664-1.272-1.484-.565-.818-.848-1.653-.848-2.501 0-.679.17-1.215.509-1.611a42.956 42.956 0 0 1 3.138-3.646 34.088 34.088 0 0 1 3.815-3.434 19.044 19.044 0 0 1 4.409-2.544 12.861 12.861 0 0 1 4.918-.975c1.242 0 2.401.17 3.477.508 1.073.34 1.978.778 2.713 1.314.734.538 1.314 1.132 1.738 1.781.424.65.636 1.259.636 1.823 0 .792-.198 1.555-.593 2.289a9.833 9.833 0 0 1-1.569 2.12 26.311 26.311 0 0 1-2.204 2.034c-.821.681-1.626 1.332-2.417 1.953z"/></g></svg>